<svg xmlns="http://www.w3.org/2000/svg" viewBox="0 0 24 24">
  <path d="M14.24 10.56C13.93 11.8 12 11.17 11.4 11L11.95 8.82C12.57 8.99 14.56 9.26 14.24 10.56M11.13 12.12L10.53 14.53C11.27 14.72 13.56 15.45 13.9 14.09C14.26 12.67 11.87 12.31 11.13 12.12M21.7 14.42C20.36 19.78 14.94 23.04 9.58 21.7C4.22 20.36 .963 14.94 2.3 9.58C3.64 4.22 9.06 .964 14.42 2.3C19.77 3.64 23.03 9.06 21.7 14.42M14.21 8.05L14.66 6.25L13.56 5.98L13.12 7.74C12.83 7.67 12.53 7.6 12.24 7.53L12.68 5.76L11.59 5.5L11.14 7.29C10.9 7.23 10.66 7.18 10.44 7.12L10.44 7.12L8.93 6.74L8.63 7.91C8.63 7.91 9.45 8.1 9.43 8.11C9.88 8.22 9.96 8.52 9.94 8.75L8.71 13.68C8.66 13.82 8.5 14.03 8.19 13.95C8.2 13.97 7.38 13.75 7.38 13.75L6.87 15L8.3 15.36C8.57 15.43 8.84 15.5 9.1 15.57L8.64 17.39L9.73 17.66L10.18 15.85C10.48 15.93 10.78 16 11.07 16.08L10.62 17.87L11.72 18.14L12.18 16.32C14.08 16.68 15.5 16.53 16.08 14.79C16.55 13.37 16.08 12.55 15.04 12.01C15.8 11.83 16.38 11.34 16.55 10.33C16.77 8.94 15.71 8.19 14.21 8.05Z"/>
</svg>
