<?xml version="1.0" encoding="utf-8"?>
<!-- Generator: Adobe Illustrator 27.7.0, SVG Export Plug-In . SVG Version: 6.00 Build 0)  -->
<svg version="1.1" id="mdi-checkbox-marked-circle-outline"
	 xmlns="http://www.w3.org/2000/svg" xmlns:xlink="http://www.w3.org/1999/xlink" x="0px" y="0px" viewBox="0 0 512 512"
	 style="enable-background:new 0 0 512 512;" xml:space="preserve">
<g>
	<path d="M460.8,256c0,113.11-91.69,204.8-204.8,204.8S51.2,369.11,51.2,256S142.89,51.2,256,51.2c19.46,0,38.4,2.82,56.32,7.94
		l40.19-40.19C322.82,6.66,290.3,0,256,0C114.62,0,0,114.62,0,256s114.62,256,256,256s256-114.62,256-256 M151.3,206.85l-36.1,36.35
		l115.2,115.2l256-256l-36.1-36.35l-219.9,219.9L151.3,206.85z"/>
</g>
</svg>
